HIERARCHY
ROOT Hips
{
	OFFSET 0 0 0
	CHANNELS 6 Xposition Yposition Zposition Yrotation Xrotation Zrotation
	JOINT Spine
	{
		OFFSET -0 8.38753 -2.67353
		CHANNELS 3 Yrotation Xrotation Zrotation
		JOINT Spine1
		{
			OFFSET -0 8.14501 0
			CHANNELS 3 Yrotation Xrotation Zrotation
			JOINT Spine2
			{
				OFFSET -0 8.14501 0
				CHANNELS 3 Yrotation Xrotation Zrotation
				JOINT Spine3
				{
					OFFSET -0 8.14501 0
					CHANNELS 3 Yrotation Xrotation Zrotation
					JOINT Neck
					{
						OFFSET -0 20.4023 3.67353
						CHANNELS 3 Yrotation Xrotation Zrotation
						JOINT Head
						{
							OFFSET -0 10.4844 0
							CHANNELS 3 Yrotation Xrotation Zrotation
							End Site
							{
								OFFSET 0 15 0
							}
						}
					}
					JOINT LeftShoulder
					{
						OFFSET 1.7474 7.28686 3.4948
						CHANNELS 3 Yrotation Xrotation Zrotation
						JOINT LeftArm
						{
							OFFSET 15.4467 0 0
							CHANNELS 3 Yrotation Xrotation Zrotation
							JOINT LeftForeArm
							{
								OFFSET 24.9712 0 0
								CHANNELS 3 Yrotation Xrotation Zrotation
								JOINT LeftHand
								{
									OFFSET 23.8013 0 0
									CHANNELS 3 Yrotation Xrotation Zrotation
									End Site
									{
										OFFSET 15 0 0
									}
								}
							}
						}
					}
					JOINT RightShoulder
					{
						OFFSET -1.7474 7.28686 3.4948
						CHANNELS 3 Yrotation Xrotation Zrotation
						JOINT RightArm
						{
							OFFSET -15.4467 0 0
							CHANNELS 3 Yrotation Xrotation Zrotation
							JOINT RightForeArm
							{
								OFFSET -24.9712 0 0
								CHANNELS 3 Yrotation Xrotation Zrotation
								JOINT RightHand
								{
									OFFSET -23.8013 0 0
									CHANNELS 3 Yrotation Xrotation Zrotation
									End Site
									{
										OFFSET -15 0 0
									}
								}
							}
						}
					}
				}
			}
		}
	}
	JOINT LeftUpLeg
	{
		OFFSET 10.4844 -3.4948 2
		CHANNELS 3 Yrotation Xrotation Zrotation
		JOINT LeftLeg
		{
			OFFSET -0 -39.9267 2.44636
			CHANNELS 3 Yrotation Xrotation Zrotation
			JOINT LeftFoot
			{
				OFFSET -0 -41.4083 -2.44636
				CHANNELS 3 Yrotation Xrotation Zrotation
				JOINT LeftToeBase
				{
					OFFSET -0 -6.74672 15.7266
					CHANNELS 3 Yrotation Xrotation Zrotation
					End Site
					{
						OFFSET 0 0 5
					}
				}
			}
		}
	}
	JOINT RightUpLeg
	{
		OFFSET -10.4844 -3.4948 2
		CHANNELS 3 Yrotation Xrotation Zrotation
		JOINT RightLeg
		{
			OFFSET -0 -39.9267 2.44636
			CHANNELS 3 Yrotation Xrotation Zrotation
			JOINT RightFoot
			{
				OFFSET -0 -41.4083 -2.44636
				CHANNELS 3 Yrotation Xrotation Zrotation
				JOINT RightToeBase
				{
					OFFSET -0 -6.74672 15.7266
					CHANNELS 3 Yrotation Xrotation Zrotation
					End Site
					{
						OFFSET 0 0 5
					}
				}
			}
		}
	}
}
MOTION
Frames: 5
Frame Time: 0.00833333
-77.509167 93.221655 -25.998688 28.230784 1.985627 1.919228 -3.630940 3.905543 -6.172143 -4.921266 3.624577 -3.434808 -2.539698 3.454930 -1.300888 -1.856433 3.926346 1.576988 -2.902080 -7.093566 8.308564 -0.893737 -4.236999 1.656392 0.404789 6.833208 18.251956 -85.964338 -19.607236 -9.080384 -83.078948 25.637572 31.041158 2.662108 8.827772 9.232126 -1.972291 2.404560 -15.792789 -16.345181 6.344497 13.580825 100.104135 23.337537 -35.292933 3.642707 20.933290 -7.595396 1.616825 -15.516142 7.693380 0.000000 7.807532 0.000000 -6.112683 9.607113 -6.757332 0.000000 -6.128875 0.000000 13.540025 -10.642459 -17.777630 0.000000 33.042528 0.000000 -8.271928 4.005199 12.504267 0.000000 -15.661565 0.000000
-77.488452 92.998706 -25.820053 28.732336 1.838608 2.340108 -3.762520 3.802309 -6.898208 -5.176664 3.608631 -3.851094 -2.225507 3.689112 -1.436362 -1.409533 4.120433 1.685198 -3.357062 -7.151332 9.421784 -1.038436 -3.658509 1.435680 1.609951 7.617678 18.061245 -86.596562 -18.564184 -11.048240 -85.489134 26.929833 30.667198 3.134166 9.093206 9.331536 -3.149979 2.747046 -14.303414 -17.260269 8.082525 15.371795 105.056312 23.973250 -34.455689 2.714545 22.998526 -7.146406 1.309232 -16.074921 7.308266 0.000000 9.202928 0.000000 -6.258530 8.968893 -6.716056 0.000000 -6.177388 0.000000 16.765314 -9.623266 -18.237541 0.000000 33.997606 0.000000 -8.317061 3.194515 11.011665 0.000000 -15.390697 0.000000
-77.496875 92.758502 -25.632639 29.285171 1.717150 2.679425 -3.848388 3.705720 -7.503492 -5.448513 3.681079 -4.205705 -1.868997 3.905876 -1.607645 -0.941124 4.183995 1.717517 -4.062129 -6.988965 10.270647 -1.335592 -3.544665 1.719296 2.779325 8.484210 18.054632 -87.388630 -17.346895 -12.879316 -87.253107 28.418639 30.414735 3.874179 9.485708 10.352017 -4.477107 3.123189 -12.752390 -18.061452 9.441247 17.192988 109.318447 24.713136 -33.399830 2.661827 25.165139 -6.924562 0.924451 -16.726353 7.039280 0.000000 10.652987 0.000000 -6.406404 8.399020 -6.771240 0.000000 -5.987088 0.000000 19.953463 -8.743778 -18.520371 0.000000 35.038970 0.000000 -8.372934 2.994950 10.213938 0.000000 -16.594385 0.000000
-77.492004 92.492065 -25.438269 29.723912 1.569262 3.010871 -4.007563 3.664381 -8.063853 -5.639752 3.552250 -4.463174 -1.378097 3.981989 -1.815113 -0.462377 4.720754 1.482355 -4.721801 -7.170482 11.422443 -1.584065 -3.259393 1.775342 3.835023 9.278545 18.326061 -87.914008 -16.187178 -14.438939 -89.089256 29.511387 29.902202 4.411450 9.725942 11.090462 -5.840322 3.463565 -11.078364 -18.509533 10.403739 18.958794 113.113910 25.339155 -32.413386 2.146937 26.774078 -6.381175 0.705722 -17.431220 6.763917 0.000000 12.285231 0.000000 -6.610605 7.725708 -6.728597 0.000000 -5.748592 0.000000 22.981701 -7.722961 -18.687794 0.000000 35.814677 0.000000 -8.641947 2.929112 10.264331 0.000000 -18.697420 0.000000
-77.485468 92.179163 -25.248251 30.330214 1.371042 3.370423 -4.083240 3.538918 -8.770493 -5.929563 3.887685 -4.779766 -1.144448 4.079966 -1.726149 -0.201177 4.982939 1.461945 -5.278360 -7.439766 12.043982 -1.817503 -3.104594 1.956542 5.360449 9.976328 18.395793 -88.410651 -15.130369 -15.618993 -91.400604 29.849119 28.775710 5.128927 9.871988 11.430179 -7.382956 3.837966 -9.597104 -18.563807 10.410204 20.397478 116.596137 26.179522 -30.981145 1.573694 27.872875 -6.111663 0.414451 -18.182134 6.443988 0.000000 14.030928 0.000000 -6.878100 6.966159 -6.659234 0.000000 -5.534048 0.000000 25.431235 -6.617798 -18.798767 0.000000 36.514875 0.000000 -9.131217 2.767753 11.597247 0.000000 -20.461484 0.000000
